<svg width="14" height="14" viewBox="0 0 14 14" fill="none" xmlns="http://www.w3.org/2000/svg">
<path d="M7 8.33337C6.83518 8.33337 6.67406 8.38225 6.53702 8.47382C6.39998 8.56538 6.29317 8.69553 6.2301 8.8478C6.16703 9.00008 6.15052 9.16763 6.18268 9.32928C6.21483 9.49093 6.2942 9.63942 6.41074 9.75596C6.52729 9.87251 6.67577 9.95187 6.83742 9.98403C6.99907 10.0162 7.16663 9.99968 7.3189 9.93661C7.47117 9.87353 7.60132 9.76672 7.69289 9.62968C7.78446 9.49264 7.83333 9.33153 7.83333 9.16671C7.83333 8.94569 7.74553 8.73373 7.58925 8.57745C7.43297 8.42117 7.22101 8.33337 7 8.33337V8.33337ZM7 7.33337C7.17681 7.33337 7.34638 7.26314 7.4714 7.13811C7.59643 7.01309 7.66666 6.84352 7.66666 6.66671V4.66671C7.66666 4.4899 7.59643 4.32033 7.4714 4.1953C7.34638 4.07028 7.17681 4.00004 7 4.00004C6.82319 4.00004 6.65362 4.07028 6.52859 4.1953C6.40357 4.32033 6.33333 4.4899 6.33333 4.66671V6.66671C6.33333 6.84352 6.40357 7.01309 6.52859 7.13811C6.65362 7.26314 6.82319 7.33337 7 7.33337ZM7 0.333374C5.68146 0.333374 4.39252 0.724367 3.2962 1.45691C2.19987 2.18945 1.34539 3.23064 0.840801 4.44882C0.336217 5.66699 0.204195 7.00744 0.461429 8.30064C0.718664 9.59385 1.3536 10.7817 2.28595 11.7141C3.2183 12.6464 4.40619 13.2814 5.6994 13.5386C6.9926 13.7958 8.33305 13.6638 9.55122 13.1592C10.7694 12.6547 11.8106 11.8002 12.5431 10.7038C13.2757 9.60751 13.6667 8.31858 13.6667 7.00004C13.6647 5.23253 12.9617 3.53796 11.7119 2.28814C10.4621 1.03832 8.76751 0.335315 7 0.333374V0.333374ZM7 12.3334C5.94516 12.3334 4.91402 12.0206 4.03696 11.4345C3.15989 10.8485 2.47631 10.0156 2.07264 9.04102C1.66897 8.06648 1.56336 6.99412 1.76914 5.95956C1.97493 4.92499 2.48288 3.97468 3.22876 3.2288C3.97464 2.48292 4.92495 1.97497 5.95952 1.76919C6.99408 1.5634 8.06644 1.66902 9.04098 2.07268C10.0155 2.47635 10.8485 3.15994 11.4345 4.037C12.0205 4.91406 12.3333 5.94521 12.3333 7.00004C12.3316 8.41399 11.7691 9.76952 10.7693 10.7693C9.76947 11.7691 8.41394 12.3316 7 12.3334Z" fill="#CD3232"/>
</svg>
