<svg width="18" height="18" viewBox="0 0 18 18" fill="none" xmlns="http://www.w3.org/2000/svg">
<path d="M17.6425 8.48295C15.7381 4.47112 12.8593 2.45215 9.00011 2.45215C5.13895 2.45215 2.26217 4.47112 0.357702 8.48496C0.281313 8.64671 0.241695 8.82338 0.241695 9.00226C0.241695 9.18114 0.281313 9.35781 0.357702 9.51956C2.26217 13.5314 5.14096 15.5504 9.00011 15.5504C12.8613 15.5504 15.7381 13.5314 17.6425 9.51755C17.7972 9.1921 17.7972 8.81443 17.6425 8.48295ZM9.00011 14.1039C5.75971 14.1039 3.38717 12.4606 1.71373 9.00126C3.38717 5.54188 5.75971 3.89858 9.00011 3.89858C12.2405 3.89858 14.6131 5.54188 16.2865 9.00126C14.6151 12.4606 12.2425 14.1039 9.00011 14.1039ZM8.91976 5.46554C6.96708 5.46554 5.38404 7.04858 5.38404 9.00126C5.38404 10.9539 6.96708 12.537 8.91976 12.537C10.8724 12.537 12.4555 10.9539 12.4555 9.00126C12.4555 7.04858 10.8724 5.46554 8.91976 5.46554ZM8.91976 11.2513C7.67623 11.2513 6.66976 10.2448 6.66976 9.00126C6.66976 7.75773 7.67623 6.75126 8.91976 6.75126C10.1633 6.75126 11.1698 7.75773 11.1698 9.00126C11.1698 10.2448 10.1633 11.2513 8.91976 11.2513Z" fill="#16227B"/>
</svg>
