<svg width="18" height="18" viewBox="0 0 18 18" fill="none" xmlns="http://www.w3.org/2000/svg">
<path d="M17.6425 8.47976C16.9363 6.99195 16.0959 5.77856 15.1213 4.83959L14.0992 5.86173C14.9327 6.65827 15.6587 7.7003 16.2865 8.99807C14.6151 12.4574 12.2425 14.1007 9.00012 14.1007C8.02686 14.1007 7.13041 13.9509 6.31076 13.6511L5.20324 14.7587C6.34163 15.2843 7.60726 15.5472 9.00012 15.5472C12.8613 15.5472 15.7421 13.5362 17.6425 9.51436C17.7189 9.35261 17.7586 9.17595 17.7586 8.99706C17.7586 8.81818 17.7189 8.64151 17.6425 8.47976V8.47976ZM16.3655 2.03834L15.509 1.18092C15.4941 1.16598 15.4764 1.15413 15.4569 1.14604C15.4374 1.13795 15.4165 1.13379 15.3953 1.13379C15.3742 1.13379 15.3533 1.13795 15.3338 1.14604C15.3143 1.15413 15.2966 1.16598 15.2816 1.18092L13.0845 3.37709C11.8731 2.75834 10.5116 2.44896 9.00012 2.44896C5.13896 2.44896 2.25815 4.4599 0.357705 8.48177C0.281317 8.64353 0.241699 8.82019 0.241699 8.99907C0.241699 9.17796 0.281317 9.35462 0.357705 9.51637C1.11695 11.1155 2.03101 12.3972 3.09989 13.3617L0.974045 15.4869C0.943928 15.517 0.92701 15.5579 0.92701 15.6005C0.92701 15.6431 0.943928 15.684 0.974045 15.7141L1.83166 16.5717C1.86179 16.6018 1.90266 16.6188 1.94526 16.6188C1.98787 16.6188 2.02873 16.6018 2.05887 16.5717L16.3655 2.26575C16.3804 2.25082 16.3922 2.23309 16.4003 2.21358C16.4084 2.19407 16.4126 2.17316 16.4126 2.15204C16.4126 2.13092 16.4084 2.11001 16.4003 2.0905C16.3922 2.07099 16.3804 2.05326 16.3655 2.03834ZM1.71373 8.99807C3.38717 5.53869 5.75971 3.89539 9.00012 3.89539C10.0958 3.89539 11.092 4.08342 11.9958 4.46572L10.5836 5.878C9.91472 5.52114 9.14889 5.3887 8.39905 5.50021C7.64922 5.61173 6.95507 5.96129 6.41903 6.49734C5.88298 7.03338 5.53342 7.72753 5.4219 8.47736C5.31039 9.2272 5.44283 9.99303 5.79969 10.6619L4.12384 12.3377C3.19632 11.5191 2.39677 10.4099 1.71373 8.99807ZM6.66976 8.99807C6.67011 8.64382 6.75402 8.29466 6.91467 7.97893C7.07532 7.66321 7.30818 7.38983 7.59433 7.18101C7.88048 6.97219 8.21186 6.83381 8.56154 6.77712C8.91122 6.72043 9.26934 6.74702 9.60681 6.85474L6.77643 9.68512C6.70549 9.46301 6.6695 9.23123 6.66976 8.99807V8.99807Z" fill="#16227B"/>
<path d="M8.92011 11.2514C8.8506 11.2514 8.78209 11.2482 8.71419 11.242L7.65308 12.3031C8.29129 12.5475 8.98665 12.6018 9.65507 12.4595C10.3235 12.3171 10.9364 11.9842 11.4196 11.5009C11.9029 11.0177 12.2358 10.4048 12.3782 9.73637C12.5205 9.06794 12.4662 8.37259 12.2218 7.73438L11.1607 8.79549C11.1669 8.86339 11.1701 8.9319 11.1701 9.00141C11.1703 9.29692 11.1122 9.58958 10.9992 9.86263C10.8861 10.1357 10.7204 10.3838 10.5115 10.5927C10.3025 10.8017 10.0544 10.9674 9.78133 11.0805C9.50828 11.1935 9.21563 11.2516 8.92011 11.2514V11.2514Z" fill="black" fill-opacity="0.85"/>
</svg>
