<svg width="14" height="14" viewBox="0 0 14 14" fill="none" xmlns="http://www.w3.org/2000/svg">
<path d="M8.81333 4.86004L5.95333 7.72671L4.85333 6.62671C4.79357 6.55692 4.72002 6.50024 4.63731 6.46022C4.5546 6.42021 4.46451 6.39772 4.3727 6.39418C4.28089 6.39063 4.18933 6.4061 4.10378 6.43962C4.01823 6.47313 3.94053 6.52397 3.87556 6.58894C3.81059 6.65391 3.75976 6.73161 3.72624 6.81716C3.69272 6.90271 3.67725 6.99426 3.6808 7.08608C3.68434 7.17789 3.70683 7.26798 3.74685 7.35069C3.78686 7.4334 3.84354 7.50694 3.91333 7.56671L5.48 9.14004C5.54229 9.20183 5.61617 9.25071 5.69739 9.28389C5.77862 9.31706 5.86559 9.33388 5.95333 9.33337C6.12822 9.33264 6.29582 9.2632 6.42 9.14004L9.75333 5.80671C9.81582 5.74473 9.86541 5.671 9.89926 5.58976C9.9331 5.50852 9.95053 5.42138 9.95053 5.33337C9.95053 5.24537 9.9331 5.15823 9.89926 5.07699C9.86541 4.99575 9.81582 4.92202 9.75333 4.86004C9.62842 4.73587 9.45945 4.66618 9.28333 4.66618C9.10721 4.66618 8.93824 4.73587 8.81333 4.86004V4.86004ZM7 0.333374C5.68146 0.333374 4.39252 0.724367 3.2962 1.45691C2.19987 2.18945 1.34539 3.23064 0.840801 4.44882C0.336217 5.66699 0.204195 7.00744 0.461429 8.30064C0.718664 9.59385 1.3536 10.7817 2.28595 11.7141C3.2183 12.6464 4.40619 13.2814 5.6994 13.5386C6.9926 13.7958 8.33305 13.6638 9.55122 13.1592C10.7694 12.6547 11.8106 11.8002 12.5431 10.7038C13.2757 9.60751 13.6667 8.31858 13.6667 7.00004C13.6667 6.12456 13.4942 5.25765 13.1592 4.44882C12.8242 3.63998 12.3331 2.90505 11.714 2.286C11.095 1.66694 10.3601 1.17588 9.55122 0.840844C8.74238 0.505812 7.87548 0.333374 7 0.333374V0.333374ZM7 12.3334C5.94516 12.3334 4.91402 12.0206 4.03696 11.4345C3.15989 10.8485 2.47631 10.0156 2.07264 9.04102C1.66897 8.06648 1.56336 6.99412 1.76914 5.95956C1.97493 4.92499 2.48288 3.97468 3.22876 3.2288C3.97464 2.48292 4.92495 1.97497 5.95952 1.76919C6.99408 1.5634 8.06644 1.66902 9.04098 2.07268C10.0155 2.47635 10.8485 3.15994 11.4345 4.037C12.0205 4.91406 12.3333 5.94521 12.3333 7.00004C12.3333 8.41453 11.7714 9.77108 10.7712 10.7713C9.77104 11.7715 8.41449 12.3334 7 12.3334V12.3334Z" fill="#06826B"/>
</svg>
